<svg width="346" height="345" viewBox="0 0 346 345" fill="none" xmlns="http://www.w3.org/2000/svg">
<path fill-rule="evenodd" clip-rule="evenodd" d="M20.9779 0.808619C16.2469 2.24662 9.49391 7.06062 6.75091 10.9526C5.49191 12.7396 3.69191 15.0406 2.75091 16.0676C-1.04209 20.2076 -0.790092 40.3866 3.12691 46.1476C4.26891 47.8266 32.8099 76.8786 66.5519 110.708L127.899 172.215L68.3249 231.708C35.5599 264.429 6.99491 293.752 4.84691 296.869C1.94291 301.086 0.778908 303.942 0.298908 308.025C-0.612092 315.77 0.654908 326.054 2.80391 328.36C3.77391 329.401 5.35091 331.448 6.30791 332.91C7.26591 334.372 10.5679 337.51 13.6449 339.885L19.2389 344.201H30.8229C42.3349 344.201 42.4379 344.18 47.4069 340.816C50.1569 338.954 79.5199 310.384 112.657 277.327L172.907 217.223L234.157 278.314C267.845 311.913 296.982 340.483 298.907 341.802C302.102 343.992 303.41 344.201 313.907 344.201H325.407L331.494 340.025C334.842 337.728 338.406 334.589 339.414 333.05C340.422 331.511 342.04 329.401 343.01 328.36C345.161 326.052 346.425 315.768 345.513 308.007C345.075 304.28 343.86 301 341.752 297.851C340.039 295.294 311.475 265.973 278.276 232.694L217.915 172.187L277.968 112.194C310.997 79.1976 339.537 50.1606 341.39 47.6676C345.283 42.4296 346.598 34.9756 345.476 24.5016C344.765 17.8626 343.001 14.7626 336.049 7.93062C329.673 1.66562 325.572 0.200619 314.407 0.200619C306.634 0.200619 303.516 0.625619 300.407 2.10762C297.755 3.37262 275.594 24.7686 234.653 65.5926L172.899 127.171L112.153 66.5566C72.1779 26.6686 49.7209 4.97662 46.4769 3.12062C42.2869 0.723619 40.2589 0.259619 32.9769 0.0336188C28.2629 -0.113381 22.8639 0.235619 20.9779 0.808619Z" fill="#D0D4D5"/>
</svg>
